<?xml version="1.0" encoding="UTF-8"?>
<!DOCTYPE svg PUBLIC "-//W3C//DTD SVG 1.1//EN" "http://www.w3.org/Graphics/SVG/1.1/DTD/svg11.dtd">
<svg xmlns="http://www.w3.org/2000/svg" version="1.1" width="43px" height="31px" style="shape-rendering:geometricPrecision; text-rendering:geometricPrecision; image-rendering:optimizeQuality; fill-rule:evenodd; clip-rule:evenodd" xmlns:xlink="http://www.w3.org/1999/xlink">
<g><path style="opacity:1" fill="#fdfeff" d="M -0.5,-0.5 C 13.8333,-0.5 28.1667,-0.5 42.5,-0.5C 42.5,9.83333 42.5,20.1667 42.5,30.5C 28.1667,30.5 13.8333,30.5 -0.5,30.5C -0.5,20.1667 -0.5,9.83333 -0.5,-0.5 Z"/></g>
<g><path style="opacity:1" fill="#29acff" d="M 14.5,22.5 C 14.5,18.8333 14.5,15.1667 14.5,11.5C 12.8333,11.5 11.1667,11.5 9.5,11.5C 11.0478,10.2057 13.0478,9.53907 15.5,9.5C 17.5,9.83333 19.5,10.1667 21.5,10.5C 20.3112,11.4287 18.9778,11.762 17.5,11.5C 17.5,15.1667 17.5,18.8333 17.5,22.5C 16.5,22.5 15.5,22.5 14.5,22.5 Z"/></g>
<g><path style="opacity:1" fill="#3c9fff" d="M 24.5,9.5 C 26.4672,9.26057 28.3005,9.59391 30,10.5C 31.4774,14.4299 32.6441,18.4299 33.5,22.5C 30.8819,20.7263 27.8819,19.7263 24.5,19.5C 24.5,20.5 24.5,21.5 24.5,22.5C 23.0222,22.762 21.6888,22.4287 20.5,21.5C 22.4379,17.6862 23.7713,13.6862 24.5,9.5 Z"/></g>
<g><path style="opacity:1" fill="#8fd8ff" d="M 9.5,11.5 C 11.1667,11.5 12.8333,11.5 14.5,11.5C 14.5,15.1667 14.5,18.8333 14.5,22.5C 13.5206,19.3752 13.1872,16.0419 13.5,12.5C 11.901,12.7678 10.5676,12.4345 9.5,11.5 Z"/></g>
<g><path style="opacity:1" fill="#c7e6ff" d="M 26.5,12.5 C 28.2132,13.6354 28.8799,15.302 28.5,17.5C 27.5,17.5 26.5,17.5 25.5,17.5C 25.6287,15.7839 25.962,14.1172 26.5,12.5 Z"/></g>
</svg>
